<svg width="147" height="147" viewBox="0 0 147 147" fill="none" xmlns="http://www.w3.org/2000/svg">
<path d="M73.5315 0.358887C63.9229 0.358887 54.4079 2.25094 45.5306 5.92638C36.6533 9.60224 28.5875 14.9896 21.7928 21.7813C14.9985 28.5734 9.60911 36.636 5.93183 45.5099C2.25497 54.3838 0.362183 63.895 0.362183 73.4999C0.362183 83.1048 2.25497 92.6161 5.93183 101.49C9.60911 110.364 14.9985 118.426 21.7928 125.219C28.5875 132.01 36.6533 137.398 45.5306 141.073C54.4079 144.749 63.9229 146.641 73.5315 146.641V110.07C68.727 110.07 63.9697 109.125 59.5311 107.286C55.0924 105.449 51.0593 102.755 47.6622 99.3592C44.265 95.9634 41.5703 91.9319 39.7319 87.4949C37.893 83.058 36.9468 78.3026 36.9468 73.4999C36.9468 68.6973 37.893 63.9418 39.7319 59.5049C41.5703 55.068 44.265 51.0364 47.6622 47.6406C51.0593 44.2448 55.0924 41.5511 59.5311 39.7134C63.9697 37.8752 68.727 36.9294 73.5315 36.9294V0.358887Z" fill="#0F52FF"/>
<path d="M73.5319 97.88C87.0022 97.88 97.9215 86.9649 97.9215 73.4998C97.9215 60.0348 87.0022 49.1196 73.5319 49.1196C60.0616 49.1196 49.1423 60.0348 49.1423 73.4998C49.1423 86.9649 60.0616 97.88 73.5319 97.88Z" fill="#0F52FF"/>
<path d="M0.362183 73.5C0.362183 83.1049 2.25497 92.6161 5.93183 101.49C9.60911 110.364 14.9985 118.427 21.7928 125.219C28.5875 132.01 36.6533 137.398 45.5306 141.074C54.4079 144.749 63.9229 146.641 73.5315 146.641C83.1401 146.641 92.655 144.749 101.532 141.074C110.41 137.398 118.475 132.01 125.27 125.219C132.064 118.427 137.454 110.364 141.131 101.49C144.808 92.6161 146.701 83.1049 146.701 73.5H110.116C110.116 78.3026 109.17 83.0581 107.331 87.495C105.493 91.932 102.798 95.9635 99.4008 99.3593C96.0036 102.755 91.9705 105.449 87.5319 107.287C83.0932 109.125 78.336 110.071 73.5315 110.071C68.727 110.071 63.9697 109.125 59.5311 107.287C55.0924 105.449 51.0593 102.755 47.6622 99.3593C44.265 95.9635 41.5703 91.932 39.7319 87.495C37.893 83.0581 36.9468 78.3026 36.9468 73.5H0.362183Z" fill="#5BD0F4"/>
<path d="M97.9215 73.4998C97.9215 67.0337 95.3518 60.8326 90.7781 56.2602C86.204 51.6879 80.0005 49.1191 73.5319 49.1191C67.0633 49.1191 60.8598 51.6879 56.2857 56.2602C51.7116 60.8326 49.1418 67.0337 49.1418 73.4998H73.5319H97.9215Z" fill="#5BD0F4"/>
</svg>
